<?xml version="1.0" encoding="utf-8" standalone="no"?>
<!DOCTYPE svg PUBLIC "-//W3C//DTD SVG 1.1//EN" "http://www.w3.org/Graphics/SVG/1.1/DTD/svg11.dtd">
<!--
digraph NumericProtocols {
    /* graph [splines=ortho]; */
    node [shape=box, fontname="sans-serif"];
    /* Equatable; */
    /* Comparable; */ AdditiveArithmetic;
    Numeric;
    SignedNumeric;
    BinaryInteger; FloatingPoint;
    SignedInteger; FixedWidthInteger; UnsignedInteger;
    BinaryFloatingPoint;
    node [style=filled];
    "Int..."; "UInt...";
    Float; Double; Float80;
    
    node [style=dashed, color=grey, fontcolor=grey];
    DecimalFloatingPoint;
    
    node [style="dashed, filled", fillcolor=whitesmoke, fontcolor=grey];
    Vector; "Decimal..."; Complex; BigInt;
    
    /*
    Equatable -> { Comparable; AdditiveArithmetic; }
    Comparable -> { FloatingPoint; BinaryInteger; }
    */
    AdditiveArithmetic -> { Numeric; Vector; }
    Numeric -> { BinaryInteger; SignedNumeric; }
    SignedNumeric -> { FloatingPoint; SignedInteger; }
    SignedNumeric -> Complex [style=dashed, color=grey];
    FloatingPoint -> BinaryFloatingPoint;
    FloatingPoint -> DecimalFloatingPoint [style=dashed, color=grey];
    BinaryInteger -> { SignedInteger; FixedWidthInteger; UnsignedInteger; }
    SignedInteger -> "Int...";
    SignedInteger -> BigInt [style=dashed, color=grey];
    FixedWidthInteger -> { "Int..."; "UInt..."; }
    UnsignedInteger -> "UInt...";
    BinaryFloatingPoint -> { Float; Double; Float80; }
    DecimalFloatingPoint -> "Decimal..." [style=dashed, color=grey];
    
    { rank=same; "Int..."; "UInt..."; Float; Double; Float80; "Decimal..."; BigInt; }
}
-->
<svg width="755pt" height="404pt" viewBox="0.00 0.00 755.37 404.00" xmlns="http://www.w3.org/2000/svg" xmlns:xlink="http://www.w3.org/1999/xlink">
<g id="graph0" class="graph" transform="scale(1 1) rotate(0) translate(4 400)">
<title>NumericProtocols</title>
<polygon fill="#ffffff" stroke="transparent" points="-4,4 -4,-400 751.3687,-400 751.3687,4 -4,4"/>
<!-- AdditiveArithmetic -->
<g id="node1" class="node">
<title>AdditiveArithmetic</title>
<polygon fill="none" stroke="#000000" points="557.041,-396 428.959,-396 428.959,-360 557.041,-360 557.041,-396"/>
<text text-anchor="middle" x="493" y="-373.8" font-family="sans-serif" font-size="14.00" fill="#000000">AdditiveArithmetic</text>
</g>
<!-- Numeric -->
<g id="node2" class="node">
<title>Numeric</title>
<polygon fill="none" stroke="#000000" points="487.1173,-324 418.8827,-324 418.8827,-288 487.1173,-288 487.1173,-324"/>
<text text-anchor="middle" x="453" y="-301.8" font-family="sans-serif" font-size="14.00" fill="#000000">Numeric</text>
</g>
<!-- AdditiveArithmetic&#45;&gt;Numeric -->
<g id="edge1" class="edge">
<title>AdditiveArithmetic&#45;&gt;Numeric</title>
<path fill="none" stroke="#000000" d="M482.9063,-359.8314C478.4403,-351.7925 473.0925,-342.1666 468.1621,-333.2918"/>
<polygon fill="#000000" stroke="#000000" points="471.1456,-331.4551 463.2296,-324.4133 465.0265,-334.8546 471.1456,-331.4551"/>
</g>
<!-- Vector -->
<g id="node16" class="node">
<title>Vector</title>
<polygon fill="#f5f5f5" stroke="#c0c0c0" stroke-dasharray="5,2" points="560.6971,-324 505.3029,-324 505.3029,-288 560.6971,-288 560.6971,-324"/>
<text text-anchor="middle" x="533" y="-301.8" font-family="sans-serif" font-size="14.00" fill="#c0c0c0">Vector</text>
</g>
<!-- AdditiveArithmetic&#45;&gt;Vector -->
<g id="edge2" class="edge">
<title>AdditiveArithmetic&#45;&gt;Vector</title>
<path fill="none" stroke="#000000" d="M503.0937,-359.8314C507.5597,-351.7925 512.9075,-342.1666 517.8379,-333.2918"/>
<polygon fill="#000000" stroke="#000000" points="520.9735,-334.8546 522.7704,-324.4133 514.8544,-331.4551 520.9735,-334.8546"/>
</g>
<!-- SignedNumeric -->
<g id="node3" class="node">
<title>SignedNumeric</title>
<polygon fill="none" stroke="#000000" points="466.7103,-252 355.2897,-252 355.2897,-216 466.7103,-216 466.7103,-252"/>
<text text-anchor="middle" x="411" y="-229.8" font-family="sans-serif" font-size="14.00" fill="#000000">SignedNumeric</text>
</g>
<!-- Numeric&#45;&gt;SignedNumeric -->
<g id="edge3" class="edge">
<title>Numeric&#45;&gt;SignedNumeric</title>
<path fill="none" stroke="#000000" d="M442.4016,-287.8314C437.7123,-279.7925 432.0972,-270.1666 426.9202,-261.2918"/>
<polygon fill="#000000" stroke="#000000" points="429.8031,-259.2875 421.7411,-252.4133 423.7566,-262.8146 429.8031,-259.2875"/>
</g>
<!-- BinaryInteger -->
<g id="node4" class="node">
<title>BinaryInteger</title>
<polygon fill="none" stroke="#000000" points="595.7689,-180 496.2311,-180 496.2311,-144 595.7689,-144 595.7689,-180"/>
<text text-anchor="middle" x="546" y="-157.8" font-family="sans-serif" font-size="14.00" fill="#000000">BinaryInteger</text>
</g>
<!-- Numeric&#45;&gt;BinaryInteger -->
<g id="edge4" class="edge">
<title>Numeric&#45;&gt;BinaryInteger</title>
<path fill="none" stroke="#000000" d="M464.7785,-287.7623C480.9205,-262.7682 510.032,-217.6924 528.6653,-188.8409"/>
<polygon fill="#000000" stroke="#000000" points="531.832,-190.3889 534.3171,-180.0896 525.9517,-186.5912 531.832,-190.3889"/>
</g>
<!-- FloatingPoint -->
<g id="node5" class="node">
<title>FloatingPoint</title>
<polygon fill="none" stroke="#000000" points="316.7172,-180 219.2828,-180 219.2828,-144 316.7172,-144 316.7172,-180"/>
<text text-anchor="middle" x="268" y="-157.8" font-family="sans-serif" font-size="14.00" fill="#000000">FloatingPoint</text>
</g>
<!-- SignedNumeric&#45;&gt;FloatingPoint -->
<g id="edge5" class="edge">
<title>SignedNumeric&#45;&gt;FloatingPoint</title>
<path fill="none" stroke="#000000" d="M374.9151,-215.8314C356.2011,-206.4089 333.1568,-194.8062 313.26,-184.7883"/>
<polygon fill="#000000" stroke="#000000" points="314.5792,-181.5339 304.0734,-180.1628 311.4311,-187.7861 314.5792,-181.5339"/>
</g>
<!-- SignedInteger -->
<g id="node6" class="node">
<title>SignedInteger</title>
<polygon fill="none" stroke="#000000" points="463.6789,-108 360.3211,-108 360.3211,-72 463.6789,-72 463.6789,-108"/>
<text text-anchor="middle" x="412" y="-85.8" font-family="sans-serif" font-size="14.00" fill="#000000">SignedInteger</text>
</g>
<!-- SignedNumeric&#45;&gt;SignedInteger -->
<g id="edge6" class="edge">
<title>SignedNumeric&#45;&gt;SignedInteger</title>
<path fill="none" stroke="#000000" d="M405.4554,-215.7012C402.6035,-205.3353 399.4319,-192.0653 398,-180 396.1144,-164.1115 395.976,-159.8715 398,-144 399.0854,-135.4887 401.0962,-126.4011 403.262,-118.1555"/>
<polygon fill="#000000" stroke="#000000" points="406.7045,-118.8414 406.0302,-108.2681 399.9637,-116.9542 406.7045,-118.8414"/>
</g>
<!-- Complex -->
<g id="node18" class="node">
<title>Complex</title>
<polygon fill="#f5f5f5" stroke="#c0c0c0" stroke-dasharray="5,2" points="478.7416,-180 407.2584,-180 407.2584,-144 478.7416,-144 478.7416,-180"/>
<text text-anchor="middle" x="443" y="-157.8" font-family="sans-serif" font-size="14.00" fill="#c0c0c0">Complex</text>
</g>
<!-- SignedNumeric&#45;&gt;Complex -->
<g id="edge7" class="edge">
<title>SignedNumeric&#45;&gt;Complex</title>
<path fill="none" stroke="#c0c0c0" stroke-dasharray="5,2" d="M419.075,-215.8314C422.6102,-207.8771 426.836,-198.369 430.7456,-189.5723"/>
<polygon fill="#c0c0c0" stroke="#c0c0c0" points="433.9532,-190.9729 434.8163,-180.4133 427.5565,-188.1299 433.9532,-190.9729"/>
</g>
<!-- BinaryInteger&#45;&gt;SignedInteger -->
<g id="edge10" class="edge">
<title>BinaryInteger&#45;&gt;SignedInteger</title>
<path fill="none" stroke="#000000" d="M512.1861,-143.8314C494.7293,-134.4516 473.2513,-122.9112 454.6648,-112.9244"/>
<polygon fill="#000000" stroke="#000000" points="456.2686,-109.8129 445.803,-108.1628 452.9554,-115.9792 456.2686,-109.8129"/>
</g>
<!-- FixedWidthInteger -->
<g id="node7" class="node">
<title>FixedWidthInteger</title>
<polygon fill="none" stroke="#000000" points="610.607,-108 481.393,-108 481.393,-72 610.607,-72 610.607,-108"/>
<text text-anchor="middle" x="546" y="-85.8" font-family="sans-serif" font-size="14.00" fill="#000000">FixedWidthInteger</text>
</g>
<!-- BinaryInteger&#45;&gt;FixedWidthInteger -->
<g id="edge11" class="edge">
<title>BinaryInteger&#45;&gt;FixedWidthInteger</title>
<path fill="none" stroke="#000000" d="M546,-143.8314C546,-136.131 546,-126.9743 546,-118.4166"/>
<polygon fill="#000000" stroke="#000000" points="549.5001,-118.4132 546,-108.4133 542.5001,-118.4133 549.5001,-118.4132"/>
</g>
<!-- UnsignedInteger -->
<g id="node8" class="node">
<title>UnsignedInteger</title>
<polygon fill="none" stroke="#000000" points="747.2376,-108 628.7624,-108 628.7624,-72 747.2376,-72 747.2376,-108"/>
<text text-anchor="middle" x="688" y="-85.8" font-family="sans-serif" font-size="14.00" fill="#000000">UnsignedInteger</text>
</g>
<!-- BinaryInteger&#45;&gt;UnsignedInteger -->
<g id="edge12" class="edge">
<title>BinaryInteger&#45;&gt;UnsignedInteger</title>
<path fill="none" stroke="#000000" d="M581.8326,-143.8314C600.4157,-134.4089 623.2989,-122.8062 643.0565,-112.7883"/>
<polygon fill="#000000" stroke="#000000" points="644.8427,-115.8069 652.1789,-108.1628 641.677,-109.5635 644.8427,-115.8069"/>
</g>
<!-- BinaryFloatingPoint -->
<g id="node9" class="node">
<title>BinaryFloatingPoint</title>
<polygon fill="none" stroke="#000000" points="173.9,-108 36.1,-108 36.1,-72 173.9,-72 173.9,-108"/>
<text text-anchor="middle" x="105" y="-85.8" font-family="sans-serif" font-size="14.00" fill="#000000">BinaryFloatingPoint</text>
</g>
<!-- FloatingPoint&#45;&gt;BinaryFloatingPoint -->
<g id="edge8" class="edge">
<title>FloatingPoint&#45;&gt;BinaryFloatingPoint</title>
<path fill="none" stroke="#000000" d="M226.8682,-143.8314C205.0679,-134.2018 178.1122,-122.295 155.0996,-112.1299"/>
<polygon fill="#000000" stroke="#000000" points="156.3976,-108.877 145.836,-108.038 153.5692,-115.2802 156.3976,-108.877"/>
</g>
<!-- DecimalFloatingPoint -->
<g id="node15" class="node">
<title>DecimalFloatingPoint</title>
<polygon fill="none" stroke="#c0c0c0" stroke-dasharray="5,2" points="342.2825,-108 193.7175,-108 193.7175,-72 342.2825,-72 342.2825,-108"/>
<text text-anchor="middle" x="268" y="-85.8" font-family="sans-serif" font-size="14.00" fill="#c0c0c0">DecimalFloatingPoint</text>
</g>
<!-- FloatingPoint&#45;&gt;DecimalFloatingPoint -->
<g id="edge9" class="edge">
<title>FloatingPoint&#45;&gt;DecimalFloatingPoint</title>
<path fill="none" stroke="#c0c0c0" stroke-dasharray="5,2" d="M268,-143.8314C268,-136.131 268,-126.9743 268,-118.4166"/>
<polygon fill="#c0c0c0" stroke="#c0c0c0" points="271.5001,-118.4132 268,-108.4133 264.5001,-118.4133 271.5001,-118.4132"/>
</g>
<!-- Int... -->
<g id="node10" class="node">
<title>Int...</title>
<polygon fill="#d3d3d3" stroke="#000000" points="542,-36 488,-36 488,0 542,0 542,-36"/>
<text text-anchor="middle" x="515" y="-13.8" font-family="sans-serif" font-size="14.00" fill="#000000">Int...</text>
</g>
<!-- SignedInteger&#45;&gt;Int... -->
<g id="edge13" class="edge">
<title>SignedInteger&#45;&gt;Int...</title>
<path fill="none" stroke="#000000" d="M437.9912,-71.8314C450.9216,-62.7927 466.7222,-51.7476 480.6383,-42.0198"/>
<polygon fill="#000000" stroke="#000000" points="482.8263,-44.7608 489.0171,-36.1628 478.8157,-39.0235 482.8263,-44.7608"/>
</g>
<!-- BigInt -->
<g id="node19" class="node">
<title>BigInt</title>
<polygon fill="#f5f5f5" stroke="#c0c0c0" stroke-dasharray="5,2" points="439,-36 385,-36 385,0 439,0 439,-36"/>
<text text-anchor="middle" x="412" y="-13.8" font-family="sans-serif" font-size="14.00" fill="#c0c0c0">BigInt</text>
</g>
<!-- SignedInteger&#45;&gt;BigInt -->
<g id="edge14" class="edge">
<title>SignedInteger&#45;&gt;BigInt</title>
<path fill="none" stroke="#c0c0c0" stroke-dasharray="5,2" d="M412,-71.8314C412,-64.131 412,-54.9743 412,-46.4166"/>
<polygon fill="#c0c0c0" stroke="#c0c0c0" points="415.5001,-46.4132 412,-36.4133 408.5001,-46.4133 415.5001,-46.4132"/>
</g>
<!-- FixedWidthInteger&#45;&gt;Int... -->
<g id="edge15" class="edge">
<title>FixedWidthInteger&#45;&gt;Int...</title>
<path fill="none" stroke="#000000" d="M538.1774,-71.8314C534.7891,-63.9617 530.7459,-54.5712 526.9924,-45.8533"/>
<polygon fill="#000000" stroke="#000000" points="530.0973,-44.214 522.9279,-36.4133 523.6679,-46.9822 530.0973,-44.214"/>
</g>
<!-- UInt... -->
<g id="node11" class="node">
<title>UInt...</title>
<polygon fill="#d3d3d3" stroke="#000000" points="664,-36 610,-36 610,0 664,0 664,-36"/>
<text text-anchor="middle" x="637" y="-13.8" font-family="sans-serif" font-size="14.00" fill="#000000">UInt...</text>
</g>
<!-- FixedWidthInteger&#45;&gt;UInt... -->
<g id="edge16" class="edge">
<title>FixedWidthInteger&#45;&gt;UInt...</title>
<path fill="none" stroke="#000000" d="M568.9631,-71.8314C580.1715,-62.9632 593.8209,-52.1637 605.9439,-42.5718"/>
<polygon fill="#000000" stroke="#000000" points="608.3737,-45.1125 614.0442,-36.1628 604.0303,-39.6229 608.3737,-45.1125"/>
</g>
<!-- UnsignedInteger&#45;&gt;UInt... -->
<g id="edge17" class="edge">
<title>UnsignedInteger&#45;&gt;UInt...</title>
<path fill="none" stroke="#000000" d="M675.1305,-71.8314C669.3165,-63.6232 662.3304,-53.7606 655.9354,-44.7323"/>
<polygon fill="#000000" stroke="#000000" points="658.679,-42.5505 650.0427,-36.4133 652.9669,-46.5966 658.679,-42.5505"/>
</g>
<!-- Float -->
<g id="node12" class="node">
<title>Float</title>
<polygon fill="#d3d3d3" stroke="#000000" points="54,-36 0,-36 0,0 54,0 54,-36"/>
<text text-anchor="middle" x="27" y="-13.8" font-family="sans-serif" font-size="14.00" fill="#000000">Float</text>
</g>
<!-- BinaryFloatingPoint&#45;&gt;Float -->
<g id="edge18" class="edge">
<title>BinaryFloatingPoint&#45;&gt;Float</title>
<path fill="none" stroke="#000000" d="M85.3173,-71.8314C75.8949,-63.1337 64.4599,-52.5783 54.2204,-43.1265"/>
<polygon fill="#000000" stroke="#000000" points="56.3984,-40.3738 46.6764,-36.1628 51.6505,-45.5175 56.3984,-40.3738"/>
</g>
<!-- Double -->
<g id="node13" class="node">
<title>Double</title>
<polygon fill="#d3d3d3" stroke="#000000" points="132.3663,-36 71.6337,-36 71.6337,0 132.3663,0 132.3663,-36"/>
<text text-anchor="middle" x="102" y="-13.8" font-family="sans-serif" font-size="14.00" fill="#000000">Double</text>
</g>
<!-- BinaryFloatingPoint&#45;&gt;Double -->
<g id="edge19" class="edge">
<title>BinaryFloatingPoint&#45;&gt;Double</title>
<path fill="none" stroke="#000000" d="M104.243,-71.8314C103.9221,-64.131 103.5406,-54.9743 103.184,-46.4166"/>
<polygon fill="#000000" stroke="#000000" points="106.6806,-46.2589 102.7672,-36.4133 99.6867,-46.5503 106.6806,-46.2589"/>
</g>
<!-- Float80 -->
<g id="node14" class="node">
<title>Float80</title>
<polygon fill="#d3d3d3" stroke="#000000" points="213.197,-36 150.803,-36 150.803,0 213.197,0 213.197,-36"/>
<text text-anchor="middle" x="182" y="-13.8" font-family="sans-serif" font-size="14.00" fill="#000000">Float80</text>
</g>
<!-- BinaryFloatingPoint&#45;&gt;Float80 -->
<g id="edge20" class="edge">
<title>BinaryFloatingPoint&#45;&gt;Float80</title>
<path fill="none" stroke="#000000" d="M124.4304,-71.8314C133.732,-63.1337 145.0204,-52.5783 155.1286,-43.1265"/>
<polygon fill="#000000" stroke="#000000" points="157.6621,-45.5493 162.5759,-36.1628 152.8811,-40.4363 157.6621,-45.5493"/>
</g>
<!-- Decimal... -->
<g id="node17" class="node">
<title>Decimal...</title>
<polygon fill="#f5f5f5" stroke="#c0c0c0" stroke-dasharray="5,2" points="309.2347,-36 230.7653,-36 230.7653,0 309.2347,0 309.2347,-36"/>
<text text-anchor="middle" x="270" y="-13.8" font-family="sans-serif" font-size="14.00" fill="#c0c0c0">Decimal...</text>
</g>
<!-- DecimalFloatingPoint&#45;&gt;Decimal... -->
<g id="edge21" class="edge">
<title>DecimalFloatingPoint&#45;&gt;Decimal...</title>
<path fill="none" stroke="#c0c0c0" stroke-dasharray="5,2" d="M268.5047,-71.8314C268.7186,-64.131 268.9729,-54.9743 269.2106,-46.4166"/>
<polygon fill="#c0c0c0" stroke="#c0c0c0" points="272.7094,-46.5066 269.4885,-36.4133 265.7121,-46.3122 272.7094,-46.5066"/>
</g>
</g>
</svg>
